<svg xmlns="http://www.w3.org/2000/svg" xmlns:xlink="http://www.w3.org/1999/xlink" xmlns:lucid="lucid" width="1741.7" height="762"><g transform="translate(201 301)" lucid:page-tab-id="0_0"><path d="M560-274a6 6 0 0 1 6-6h299.7a6 6 0 0 1 6 6v220a6 6 0 0 1-6 6H566a6 6 0 0 1-6-6z" fill="#fff"/><path d="M560-274a6 6 0 0 1 6-6h299.7a6 6 0 0 1 6 6v220a6 6 0 0 1-6 6H566a6 6 0 0 1-6-6zM560-240h311.7M604-240v192M746.67-240v192" stroke="#282c33" stroke-width="2" fill="none"/><use xlink:href="#a" transform="matrix(1,0,0,1,570,-280) translate(124.025 23.6)"/><use xlink:href="#b" transform="matrix(1,0,0,1,565,-237.5) translate(5 17.1)"/><use xlink:href="#c" transform="matrix(1,0,0,1,609,-237.5) translate(0 17.1)"/><use xlink:href="#d" transform="matrix(1,0,0,1,751.6666666666667,-237.5) translate(0 17.1)"/><use xlink:href="#e" transform="matrix(1,0,0,1,565,-205.5) translate(5 17.1)"/><use xlink:href="#f" transform="matrix(1,0,0,1,609,-205.5) translate(0 17.1)"/><use xlink:href="#g" transform="matrix(1,0,0,1,751.6666666666667,-205.5) translate(0 17.1)"/><use xlink:href="#e" transform="matrix(1,0,0,1,565,-173.5) translate(5 17.1)"/><use xlink:href="#h" transform="matrix(1,0,0,1,609,-173.5) translate(0 17.1)"/><use xlink:href="#g" transform="matrix(1,0,0,1,751.6666666666667,-173.5) translate(0 17.1)"/><use xlink:href="#i" transform="matrix(1,0,0,1,609,-141.5) translate(0 17.1)"/><use xlink:href="#g" transform="matrix(1,0,0,1,751.6666666666667,-141.5) translate(0 17.1)"/><use xlink:href="#j" transform="matrix(1,0,0,1,609,-109.5) translate(0 17.1)"/><use xlink:href="#k" transform="matrix(1,0,0,1,751.6666666666667,-109.5) translate(0 17.1)"/><use xlink:href="#l" transform="matrix(1,0,0,1,609,-77.5) translate(0 17.1)"/><use xlink:href="#k" transform="matrix(1,0,0,1,751.6666666666667,-77.5) translate(0 17.1)"/><path d="M-180 142a6 6 0 0 1 6-6h299.7a6 6 0 0 1 6 6v252a6 6 0 0 1-6 6H-174a6 6 0 0 1-6-6z" fill="#fff"/><path d="M-180 142a6 6 0 0 1 6-6h299.7a6 6 0 0 1 6 6v252a6 6 0 0 1-6 6H-174a6 6 0 0 1-6-6zM-180 176h311.7M-137.05 176v224M9.9 176v224" stroke="#282c33" stroke-width="2" fill="none"/><use xlink:href="#m" transform="matrix(1,0,0,1,-170,136) translate(110 23.6)"/><use xlink:href="#b" transform="matrix(1,0,0,1,-175,178.5) translate(4.5 17.1)"/><use xlink:href="#n" transform="matrix(1,0,0,1,-132.05,178.5) translate(0 17.1)"/><use xlink:href="#d" transform="matrix(1,0,0,1,14.900000000000034,178.5) translate(0 17.1)"/><use xlink:href="#e" transform="matrix(1,0,0,1,-175,210.5) translate(4.5 17.1)"/><use xlink:href="#o" transform="matrix(1,0,0,1,-132.05,210.5) translate(0 17.1)"/><use xlink:href="#g" transform="matrix(1,0,0,1,14.900000000000034,210.5) translate(0 17.1)"/><use xlink:href="#p" transform="matrix(1,0,0,1,-132.05,242.5) translate(0 17.1)"/><use xlink:href="#q" transform="matrix(1,0,0,1,14.900000000000034,242.5) translate(0 17.1)"/><use xlink:href="#r" transform="matrix(1,0,0,1,-132.05,274.5) translate(0 17.1)"/><use xlink:href="#s" transform="matrix(1,0,0,1,14.900000000000034,274.5) translate(0 17.1)"/><use xlink:href="#t" transform="matrix(1,0,0,1,-175,306.5) translate(5.024999999999999 17.1)"/><use xlink:href="#c" transform="matrix(1,0,0,1,-132.05,306.5) translate(0 17.1)"/><use xlink:href="#d" transform="matrix(1,0,0,1,14.900000000000034,306.5) translate(0 17.1)"/><use xlink:href="#j" transform="matrix(1,0,0,1,-132.05,338.5) translate(0 17.1)"/><use xlink:href="#k" transform="matrix(1,0,0,1,14.900000000000034,338.5) translate(0 17.1)"/><use xlink:href="#l" transform="matrix(1,0,0,1,-132.05,370.5) translate(0 17.1)"/><use xlink:href="#k" transform="matrix(1,0,0,1,14.900000000000034,370.5) translate(0 17.1)"/><path d="M539-159.97H61.9a6 6 0 0 0-6 6V-18.5a6 6 0 0 1-6 6h-68.05a6 6 0 0 0-6 6V115" stroke="#3a414a" fill="none"/><path d="M539-169.97v20M559-159.97h-20" stroke="#3a414a" fill="#fff"/><path d="M-34.15 134.78l10-20 10 20" stroke="#3a414a" fill="#fff" fill-opacity="0"/><path d="M-24.15 134.78v-20M-14.15 114.78h-20" stroke="#3a414a" fill="#fff"/><path d="M280 126a6 6 0 0 1 6-6h299.7a6 6 0 0 1 6 6v284a6 6 0 0 1-6 6H286a6 6 0 0 1-6-6z" fill="#fff"/><path d="M280 126a6 6 0 0 1 6-6h299.7a6 6 0 0 1 6 6v284a6 6 0 0 1-6 6H286a6 6 0 0 1-6-6zM280 160h311.7M322.95 160v256M480.8 160v256" stroke="#282c33" stroke-width="2" fill="none"/><use xlink:href="#u" transform="matrix(1,0,0,1,290,120.00162679262411) translate(97.55 23.6)"/><use xlink:href="#b" transform="matrix(1,0,0,1,285,162.5016267926241) translate(4.5 17.1)"/><use xlink:href="#v" transform="matrix(1,0,0,1,327.95,162.5016267926241) translate(0 17.1)"/><use xlink:href="#d" transform="matrix(1,0,0,1,485.80000000000007,162.5016267926241) translate(0 17.1)"/><use xlink:href="#t" transform="matrix(1,0,0,1,285,194.5016267926241) translate(5.024999999999999 17.1)"/><use xlink:href="#c" transform="matrix(1,0,0,1,327.95,194.5016267926241) translate(0 17.1)"/><use xlink:href="#d" transform="matrix(1,0,0,1,485.80000000000007,194.5016267926241) translate(0 17.1)"/><use xlink:href="#t" transform="matrix(1,0,0,1,285,226.5016267926241) translate(5.024999999999999 17.1)"/><use xlink:href="#n" transform="matrix(1,0,0,1,327.95,226.5016267926241) translate(0 17.1)"/><use xlink:href="#d" transform="matrix(1,0,0,1,485.80000000000007,226.5016267926241) translate(0 17.1)"/><use xlink:href="#w" transform="matrix(1,0,0,1,327.95,258.5016267926241) translate(0 17.1)"/><use xlink:href="#x" transform="matrix(1,0,0,1,485.80000000000007,258.5016267926241) translate(0 17.1)"/><use xlink:href="#y" transform="matrix(1,0,0,1,327.95,290.5016267926241) translate(0 17.1)"/><use xlink:href="#z" transform="matrix(1,0,0,1,485.80000000000007,290.5016267926241) translate(0 17.1)"/><use xlink:href="#t" transform="matrix(1,0,0,1,285,322.5016267926241) translate(5.024999999999999 17.1)"/><use xlink:href="#A" transform="matrix(1,0,0,1,327.95,322.5016267926241) translate(0 17.1)"/><use xlink:href="#x" transform="matrix(1,0,0,1,485.80000000000007,322.5016267926241) translate(0 17.1)"/><use xlink:href="#B" transform="matrix(1,0,0,1,327.95,354.5016267926241) translate(0 17.1)"/><use xlink:href="#C" transform="matrix(1,0,0,1,485.80000000000007,354.5016267926241) translate(0 17.1)"/><use xlink:href="#D" transform="matrix(1,0,0,1,327.95,386.5016267926241) translate(0 17.1)"/><use xlink:href="#E" transform="matrix(1,0,0,1,485.80000000000007,386.5016267926241) translate(0 17.1)"/><path d="M152.7 288.13h106.9" stroke="#3a414a" fill="none"/><path d="M152.7 298.13v-20M132.7 288.13h20" stroke="#3a414a" fill="#fff"/><path d="M278.78 298.13l-20-10 20-10" stroke="#3a414a" fill="#fff" fill-opacity="0"/><path d="M278.78 288.13h-20" stroke="#3a414a" fill="#fff"/><path d="M648.8-27v57a6 6 0 0 1-6 6H441.85a6 6 0 0 0-6 6v57.6" stroke="#3a414a" fill="none"/><path d="M638.8-27h20M648.8-47v20" stroke="#3a414a" fill="#fff"/><path d="M425.85 118.78l10-20 10 20" stroke="#3a414a" fill="#fff" fill-opacity="0"/><path d="M435.85 118.78v-20" stroke="#3a414a" fill="#fff"/><path d="M760 206a6 6 0 0 1 6-6h285.7a6 6 0 0 1 6 6v156a6 6 0 0 1-6 6H766a6 6 0 0 1-6-6z" fill="#fff"/><path d="M760 206a6 6 0 0 1 6-6h285.7a6 6 0 0 1 6 6v156a6 6 0 0 1-6 6H766a6 6 0 0 1-6-6zM760 240h297.7M802.95 240v128M935.9 240v128" stroke="#282c33" stroke-width="2" fill="none"/><use xlink:href="#F" transform="matrix(1,0,0,1,770,200) translate(97.55 23.6)"/><use xlink:href="#b" transform="matrix(1,0,0,1,765,242.5) translate(4.5 17.1)"/><use xlink:href="#A" transform="matrix(1,0,0,1,807.95,242.5) translate(0 17.1)"/><use xlink:href="#x" transform="matrix(1,0,0,1,940.9,242.5) translate(0 17.1)"/><use xlink:href="#t" transform="matrix(1,0,0,1,765,274.5) translate(5.024999999999999 17.1)"/><use xlink:href="#c" transform="matrix(1,0,0,1,807.95,274.5) translate(0 17.1)"/><use xlink:href="#d" transform="matrix(1,0,0,1,940.9,274.5) translate(0 17.1)"/><use xlink:href="#G" transform="matrix(1,0,0,1,807.95,306.5) translate(0 17.1)"/><use xlink:href="#g" transform="matrix(1,0,0,1,940.9,306.5) translate(0 17.1)"/><use xlink:href="#H" transform="matrix(1,0,0,1,807.95,338.5) translate(0 17.1)"/><use xlink:href="#E" transform="matrix(1,0,0,1,940.9,338.5) translate(0 17.1)"/><path d="M739 284.27H612.1" stroke="#3a414a" fill="none"/><path d="M739 274.27v20M759 284.27h-20" stroke="#3a414a" fill="#fff"/><path d="M592.92 274.27l20 10-20 10" stroke="#3a414a" fill="#fff" fill-opacity="0"/><path d="M592.92 284.27h20" stroke="#3a414a" fill="#fff"/><path d="M778.13-27v57a6 6 0 0 0 6 6h118.72a6 6 0 0 1 6 6v137.6" stroke="#3a414a" fill="none"/><path d="M768.13-27h20M778.13-47v20" stroke="#3a414a" fill="#fff"/><path d="M898.85 198.78l10-20 10 20" stroke="#3a414a" fill="#fff" fill-opacity="0"/><path d="M908.85 198.78v-20" stroke="#3a414a" fill="#fff"/><path d="M1220 86a6 6 0 0 1 6-6h287.7a6 6 0 0 1 6 6v348a6 6 0 0 1-6 6H1226a6 6 0 0 1-6-6z" fill="#fff"/><path d="M1220 86a6 6 0 0 1 6-6h287.7a6 6 0 0 1 6 6v348a6 6 0 0 1-6 6H1226a6 6 0 0 1-6-6zM1220 120h299.7M1262.95 120v320M1408.8 120v320" stroke="#282c33" stroke-width="2" fill="none"/><use xlink:href="#I" transform="matrix(1,0,0,1,1230,80) translate(112.5 23.6)"/><use xlink:href="#b" transform="matrix(1,0,0,1,1225,122.5) translate(4.5 17.1)"/><use xlink:href="#J" transform="matrix(1,0,0,1,1267.95,122.5) translate(0 17.1)"/><use xlink:href="#x" transform="matrix(1,0,0,1,1413.8,122.5) translate(0 17.1)"/><use xlink:href="#t" transform="matrix(1,0,0,1,1225,154.5) translate(5.024999999999999 17.1)"/><use xlink:href="#c" transform="matrix(1,0,0,1,1267.95,154.5) translate(0 17.1)"/><use xlink:href="#d" transform="matrix(1,0,0,1,1413.8,154.5) translate(0 17.1)"/><use xlink:href="#t" transform="matrix(1,0,0,1,1225,186.5) translate(5.024999999999999 17.1)"/><use xlink:href="#A" transform="matrix(1,0,0,1,1267.95,186.5) translate(0 17.1)"/><use xlink:href="#x" transform="matrix(1,0,0,1,1413.8,186.5) translate(0 17.1)"/><use xlink:href="#K" transform="matrix(1,0,0,1,1267.95,218.5) translate(0 17.1)"/><use xlink:href="#C" transform="matrix(1,0,0,1,1413.8,218.5) translate(0 17.1)"/><use xlink:href="#L" transform="matrix(1,0,0,1,1267.95,250.5) translate(0 17.1)"/><use xlink:href="#x" transform="matrix(1,0,0,1,1413.8,250.5) translate(0 17.1)"/><use xlink:href="#M" transform="matrix(1,0,0,1,1267.95,282.5) translate(0 17.1)"/><use xlink:href="#x" transform="matrix(1,0,0,1,1413.8,282.5) translate(0 17.1)"/><use xlink:href="#N" transform="matrix(1,0,0,1,1267.95,314.5) translate(0 17.1)"/><use xlink:href="#O" transform="matrix(1,0,0,1,1413.8,314.5) translate(0 17.1)"/><use xlink:href="#P" transform="matrix(1,0,0,1,1267.95,346.5) translate(0 17.1)"/><use xlink:href="#O" transform="matrix(1,0,0,1,1413.8,346.5) translate(0 17.1)"/><use xlink:href="#j" transform="matrix(1,0,0,1,1267.95,378.5) translate(0 17.1)"/><use xlink:href="#z" transform="matrix(1,0,0,1,1413.8,378.5) translate(0 17.1)"/><use xlink:href="#l" transform="matrix(1,0,0,1,1267.95,410.5) translate(0 17.1)"/><use xlink:href="#z" transform="matrix(1,0,0,1,1413.8,410.5) translate(0 17.1)"/><path d="M1078.1 288.03H1199" stroke="#3a414a" fill="none"/><path d="M1058.92 278.03l20 10-20 10" stroke="#3a414a" fill="#fff" fill-opacity="0"/><path d="M1058.92 288.03h20M1199 278.03v20M1219 288.03h-20" stroke="#3a414a" fill="#fff"/><path d="M892.7-159.97h471.15a6 6 0 0 1 6 6V59.6" stroke="#3a414a" fill="none"/><path d="M892.7-149.97v-20M872.7-159.97h20" stroke="#3a414a" fill="#fff"/><path d="M1359.85 78.78l10-20 10 20" stroke="#3a414a" fill="#fff" fill-opacity="0"/><path d="M1369.85 78.78v-20" stroke="#3a414a" fill="#fff"/><defs><path d="M84 4C-5 8 30-112 23-190h32v120c0 31 7 50 39 49 72-2 45-101 50-169h31l1 190h-30c-1-10 1-25-2-33-11 22-28 36-60 37" id="Q"/><path d="M135-143c-3-34-86-38-87 0 15 53 115 12 119 90S17 21 10-45l28-5c4 36 97 45 98 0-10-56-113-15-118-90-4-57 82-63 122-42 12 7 21 19 24 35" id="R"/><path d="M100-194c63 0 86 42 84 106H49c0 40 14 67 53 68 26 1 43-12 49-29l28 8c-11 28-37 45-77 45C44 4 14-33 15-96c1-61 26-98 85-98zm52 81c6-60-76-77-97-28-3 7-6 17-6 28h103" id="S"/><path d="M114-163C36-179 61-72 57 0H25l-1-190h30c1 12-1 29 2 39 6-27 23-49 58-41v29" id="T"/><g id="a"><use transform="matrix(0.05,0,0,0.05,0,0)" xlink:href="#Q"/><use transform="matrix(0.05,0,0,0.05,10,0)" xlink:href="#R"/><use transform="matrix(0.05,0,0,0.05,19,0)" xlink:href="#S"/><use transform="matrix(0.05,0,0,0.05,29,0)" xlink:href="#T"/><use transform="matrix(0.05,0,0,0.05,34.95,0)" xlink:href="#R"/></g><path d="M30-248c87 1 191-15 191 75 0 78-77 80-158 76V0H30v-248zm33 125c57 0 124 11 124-50 0-59-68-47-124-48v98" id="U"/><path d="M194 0L95-120 63-95V0H30v-248h33v124l119-124h40L117-140 236 0h-42" id="V"/><g id="b"><use transform="matrix(0.05,0,0,0.05,0,0)" xlink:href="#U"/><use transform="matrix(0.05,0,0,0.05,12,0)" xlink:href="#V"/></g><path d="M-5 72V49h209v23H-5" id="W"/><path d="M24-231v-30h32v30H24zM24 0v-190h32V0H24" id="X"/><path d="M85-194c31 0 48 13 60 33l-1-100h32l1 261h-30c-2-10 0-23-3-31C134-8 116 4 85 4 32 4 16-35 15-94c0-66 23-100 70-100zm9 24c-40 0-46 34-46 75 0 40 6 74 45 74 42 0 51-32 51-76 0-42-9-74-50-73" id="Y"/><g id="c"><use transform="matrix(0.05,0,0,0.05,0,0)" xlink:href="#Q"/><use transform="matrix(0.05,0,0,0.05,10,0)" xlink:href="#R"/><use transform="matrix(0.05,0,0,0.05,19,0)" xlink:href="#S"/><use transform="matrix(0.05,0,0,0.05,29,0)" xlink:href="#T"/><use transform="matrix(0.05,0,0,0.05,34.95,0)" xlink:href="#W"/><use transform="matrix(0.05,0,0,0.05,44.95,0)" xlink:href="#X"/><use transform="matrix(0.05,0,0,0.05,48.900000000000006,0)" xlink:href="#Y"/></g><path d="M115-194c53 0 69 39 70 98 0 66-23 100-70 100C84 3 66-7 56-30L54 0H23l1-261h32v101c10-23 28-34 59-34zm-8 174c40 0 45-34 45-75 0-40-5-75-45-74-42 0-51 32-51 76 0 43 10 73 51 73" id="Z"/><path d="M177-190C167-65 218 103 67 71c-23-6-38-20-44-43l32-5c15 47 100 32 89-28v-30C133-14 115 1 83 1 29 1 15-40 15-95c0-56 16-97 71-98 29-1 48 16 59 35 1-10 0-23 2-32h30zM94-22c36 0 50-32 50-73 0-42-14-75-50-75-39 0-46 34-46 75s6 73 46 73" id="aa"/><path d="M117-194c89-4 53 116 60 194h-32v-121c0-31-8-49-39-48C34-167 62-67 57 0H25l-1-190h30c1 10-1 24 2 32 11-22 29-35 61-36" id="ab"/><path d="M59-47c-2 24 18 29 38 22v24C64 9 27 4 27-40v-127H5v-23h24l9-43h21v43h35v23H59v120" id="ac"/><g id="d"><use transform="matrix(0.05,0,0,0.05,0,0)" xlink:href="#Z"/><use transform="matrix(0.05,0,0,0.05,10,0)" xlink:href="#X"/><use transform="matrix(0.05,0,0,0.05,13.949999999999998,0)" xlink:href="#aa"/><use transform="matrix(0.05,0,0,0.05,23.95,0)" xlink:href="#X"/><use transform="matrix(0.05,0,0,0.05,27.899999999999995,0)" xlink:href="#ab"/><use transform="matrix(0.05,0,0,0.05,37.9,0)" xlink:href="#ac"/></g><path d="M205 0l-28-72H64L36 0H1l101-248h38L239 0h-34zm-38-99l-47-123c-12 45-31 82-46 123h93" id="ad"/><g id="e"><use transform="matrix(0.05,0,0,0.05,0,0)" xlink:href="#ad"/><use transform="matrix(0.05,0,0,0.05,12,0)" xlink:href="#V"/></g><path d="M141-36C126-15 110 5 73 4 37 3 15-17 15-53c-1-64 63-63 125-63 3-35-9-54-41-54-24 1-41 7-42 31l-33-3c5-37 33-52 76-52 45 0 72 20 72 64v82c-1 20 7 32 28 27v20c-31 9-61-2-59-35zM48-53c0 20 12 33 32 33 41-3 63-29 60-74-43 2-92-5-92 41" id="ae"/><path d="M210-169c-67 3-38 105-44 169h-31v-121c0-29-5-50-35-48C34-165 62-65 56 0H25l-1-190h30c1 10-1 24 2 32 10-44 99-50 107 0 11-21 27-35 58-36 85-2 47 119 55 194h-31v-121c0-29-5-49-35-48" id="af"/><g id="f"><use transform="matrix(0.05,0,0,0.05,0,0)" xlink:href="#Q"/><use transform="matrix(0.05,0,0,0.05,10,0)" xlink:href="#R"/><use transform="matrix(0.05,0,0,0.05,19,0)" xlink:href="#S"/><use transform="matrix(0.05,0,0,0.05,29,0)" xlink:href="#T"/><use transform="matrix(0.05,0,0,0.05,34.95,0)" xlink:href="#ab"/><use transform="matrix(0.05,0,0,0.05,44.95,0)" xlink:href="#ae"/><use transform="matrix(0.05,0,0,0.05,54.95,0)" xlink:href="#af"/><use transform="matrix(0.05,0,0,0.05,69.9,0)" xlink:href="#S"/></g><path d="M108 0H70L1-190h34L89-25l56-165h34" id="ag"/><path d="M96-169c-40 0-48 33-48 73s9 75 48 75c24 0 41-14 43-38l32 2c-6 37-31 61-74 61-59 0-76-41-82-99-10-93 101-131 147-64 4 7 5 14 7 22l-32 3c-4-21-16-35-41-35" id="ah"/><path d="M106-169C34-169 62-67 57 0H25v-261h32l-1 103c12-21 28-36 61-36 89 0 53 116 60 194h-32v-121c2-32-8-49-39-48" id="ai"/><path d="M87 75C49 33 22-17 22-94c0-76 28-126 65-167h31c-38 41-64 92-64 168S80 34 118 75H87" id="aj"/><path d="M101-251c82-7 93 87 43 132L82-64C71-53 59-42 53-27h129V0H18c2-99 128-94 128-182 0-28-16-43-45-43s-46 15-49 41l-32-3c6-41 34-60 81-64" id="ak"/><path d="M54-142c48-35 137-8 131 61C196 18 31 33 14-55l32-4c7 23 22 37 52 37 35-1 51-22 54-58 4-55-73-65-99-34H22l8-134h141v27H59" id="al"/><path d="M33-261c38 41 65 92 65 168S71 34 33 75H2C39 34 66-17 66-93S39-220 2-261h31" id="am"/><g id="g"><use transform="matrix(0.05,0,0,0.05,0,0)" xlink:href="#ag"/><use transform="matrix(0.05,0,0,0.05,9,0)" xlink:href="#ae"/><use transform="matrix(0.05,0,0,0.05,19,0)" xlink:href="#T"/><use transform="matrix(0.05,0,0,0.05,24.95,0)" xlink:href="#ah"/><use transform="matrix(0.05,0,0,0.05,33.95,0)" xlink:href="#ai"/><use transform="matrix(0.05,0,0,0.05,43.95,0)" xlink:href="#ae"/><use transform="matrix(0.05,0,0,0.05,53.95,0)" xlink:href="#T"/><use transform="matrix(0.05,0,0,0.05,59.900000000000006,0)" xlink:href="#aj"/><use transform="matrix(0.05,0,0,0.05,65.85000000000001,0)" xlink:href="#ak"/><use transform="matrix(0.05,0,0,0.05,75.85000000000001,0)" xlink:href="#al"/><use transform="matrix(0.05,0,0,0.05,85.85000000000001,0)" xlink:href="#al"/><use transform="matrix(0.05,0,0,0.05,95.85000000000001,0)" xlink:href="#am"/></g><path d="M24 0v-261h32V0H24" id="an"/><g id="h"><use transform="matrix(0.05,0,0,0.05,0,0)" xlink:href="#S"/><use transform="matrix(0.05,0,0,0.05,10,0)" xlink:href="#af"/><use transform="matrix(0.05,0,0,0.05,24.950000000000003,0)" xlink:href="#ae"/><use transform="matrix(0.05,0,0,0.05,34.95,0)" xlink:href="#X"/><use transform="matrix(0.05,0,0,0.05,38.900000000000006,0)" xlink:href="#an"/></g><path d="M115-194c55 1 70 41 70 98S169 2 115 4C84 4 66-9 55-30l1 105H24l-1-265h31l2 30c10-21 28-34 59-34zm-8 174c40 0 45-34 45-75s-6-73-45-74c-42 0-51 32-51 76 0 43 10 73 51 73" id="ao"/><path d="M206 0h-36l-40-164L89 0H53L-1-190h32L70-26l43-164h34l41 164 42-164h31" id="ap"/><path d="M100-194c62-1 85 37 85 99 1 63-27 99-86 99S16-35 15-95c0-66 28-99 85-99zM99-20c44 1 53-31 53-75 0-43-8-75-51-75s-53 32-53 75 10 74 51 75" id="aq"/><g id="i"><use transform="matrix(0.05,0,0,0.05,0,0)" xlink:href="#ao"/><use transform="matrix(0.05,0,0,0.05,10,0)" xlink:href="#ae"/><use transform="matrix(0.05,0,0,0.05,20,0)" xlink:href="#R"/><use transform="matrix(0.05,0,0,0.05,29,0)" xlink:href="#R"/><use transform="matrix(0.05,0,0,0.05,38,0)" xlink:href="#ap"/><use transform="matrix(0.05,0,0,0.05,50.95,0)" xlink:href="#aq"/><use transform="matrix(0.05,0,0,0.05,60.95,0)" xlink:href="#T"/><use transform="matrix(0.05,0,0,0.05,66.9,0)" xlink:href="#Y"/><use transform="matrix(0.05,0,0,0.05,76.9,0)" xlink:href="#W"/><use transform="matrix(0.05,0,0,0.05,86.9,0)" xlink:href="#ai"/><use transform="matrix(0.05,0,0,0.05,96.9,0)" xlink:href="#ae"/><use transform="matrix(0.05,0,0,0.05,106.9,0)" xlink:href="#R"/><use transform="matrix(0.05,0,0,0.05,115.9,0)" xlink:href="#ai"/></g><g id="j"><use transform="matrix(0.05,0,0,0.05,0,0)" xlink:href="#ah"/><use transform="matrix(0.05,0,0,0.05,9,0)" xlink:href="#T"/><use transform="matrix(0.05,0,0,0.05,14.949999999999998,0)" xlink:href="#S"/><use transform="matrix(0.05,0,0,0.05,24.95,0)" xlink:href="#ae"/><use transform="matrix(0.05,0,0,0.05,34.95,0)" xlink:href="#ac"/><use transform="matrix(0.05,0,0,0.05,39.95,0)" xlink:href="#S"/><use transform="matrix(0.05,0,0,0.05,49.95,0)" xlink:href="#Y"/><use transform="matrix(0.05,0,0,0.05,59.95,0)" xlink:href="#W"/><use transform="matrix(0.05,0,0,0.05,69.95,0)" xlink:href="#ae"/><use transform="matrix(0.05,0,0,0.05,79.95,0)" xlink:href="#ac"/></g><g id="k"><use transform="matrix(0.05,0,0,0.05,0,0)" xlink:href="#ac"/><use transform="matrix(0.05,0,0,0.05,5,0)" xlink:href="#X"/><use transform="matrix(0.05,0,0,0.05,8.95,0)" xlink:href="#af"/><use transform="matrix(0.05,0,0,0.05,23.9,0)" xlink:href="#S"/><use transform="matrix(0.05,0,0,0.05,33.9,0)" xlink:href="#R"/><use transform="matrix(0.05,0,0,0.05,42.9,0)" xlink:href="#ac"/><use transform="matrix(0.05,0,0,0.05,47.9,0)" xlink:href="#ae"/><use transform="matrix(0.05,0,0,0.05,57.900000000000006,0)" xlink:href="#af"/><use transform="matrix(0.05,0,0,0.05,72.85,0)" xlink:href="#ao"/></g><g id="l"><use transform="matrix(0.05,0,0,0.05,0,0)" xlink:href="#Q"/><use transform="matrix(0.05,0,0,0.05,10,0)" xlink:href="#ao"/><use transform="matrix(0.05,0,0,0.05,20,0)" xlink:href="#Y"/><use transform="matrix(0.05,0,0,0.05,30,0)" xlink:href="#ae"/><use transform="matrix(0.05,0,0,0.05,40,0)" xlink:href="#ac"/><use transform="matrix(0.05,0,0,0.05,45,0)" xlink:href="#S"/><use transform="matrix(0.05,0,0,0.05,55,0)" xlink:href="#Y"/><use transform="matrix(0.05,0,0,0.05,65,0)" xlink:href="#W"/><use transform="matrix(0.05,0,0,0.05,75,0)" xlink:href="#ae"/><use transform="matrix(0.05,0,0,0.05,85,0)" xlink:href="#ac"/></g><g id="m"><use transform="matrix(0.05,0,0,0.05,0,0)" xlink:href="#ae"/><use transform="matrix(0.05,0,0,0.05,10,0)" xlink:href="#ah"/><use transform="matrix(0.05,0,0,0.05,19,0)" xlink:href="#ah"/><use transform="matrix(0.05,0,0,0.05,28,0)" xlink:href="#aq"/><use transform="matrix(0.05,0,0,0.05,38,0)" xlink:href="#Q"/><use transform="matrix(0.05,0,0,0.05,48,0)" xlink:href="#ab"/><use transform="matrix(0.05,0,0,0.05,58,0)" xlink:href="#ac"/><use transform="matrix(0.05,0,0,0.05,63,0)" xlink:href="#R"/></g><g id="n"><use transform="matrix(0.05,0,0,0.05,0,0)" xlink:href="#ae"/><use transform="matrix(0.05,0,0,0.05,10,0)" xlink:href="#ah"/><use transform="matrix(0.05,0,0,0.05,19,0)" xlink:href="#ah"/><use transform="matrix(0.05,0,0,0.05,28,0)" xlink:href="#aq"/><use transform="matrix(0.05,0,0,0.05,38,0)" xlink:href="#Q"/><use transform="matrix(0.05,0,0,0.05,48,0)" xlink:href="#ab"/><use transform="matrix(0.05,0,0,0.05,58,0)" xlink:href="#ac"/><use transform="matrix(0.05,0,0,0.05,63,0)" xlink:href="#W"/><use transform="matrix(0.05,0,0,0.05,73,0)" xlink:href="#X"/><use transform="matrix(0.05,0,0,0.05,76.95,0)" xlink:href="#Y"/></g><g id="o"><use transform="matrix(0.05,0,0,0.05,0,0)" xlink:href="#ae"/><use transform="matrix(0.05,0,0,0.05,10,0)" xlink:href="#ah"/><use transform="matrix(0.05,0,0,0.05,19,0)" xlink:href="#ah"/><use transform="matrix(0.05,0,0,0.05,28,0)" xlink:href="#aq"/><use transform="matrix(0.05,0,0,0.05,38,0)" xlink:href="#Q"/><use transform="matrix(0.05,0,0,0.05,48,0)" xlink:href="#ab"/><use transform="matrix(0.05,0,0,0.05,58,0)" xlink:href="#ac"/><use transform="matrix(0.05,0,0,0.05,63,0)" xlink:href="#W"/><use transform="matrix(0.05,0,0,0.05,73,0)" xlink:href="#ab"/><use transform="matrix(0.05,0,0,0.05,83,0)" xlink:href="#ae"/><use transform="matrix(0.05,0,0,0.05,93,0)" xlink:href="#af"/><use transform="matrix(0.05,0,0,0.05,107.95,0)" xlink:href="#S"/></g><path d="M179-190L93 31C79 59 56 82 12 73V49c39 6 53-20 64-50L1-190h34L92-34l54-156h33" id="ar"/><g id="p"><use transform="matrix(0.05,0,0,0.05,0,0)" xlink:href="#ae"/><use transform="matrix(0.05,0,0,0.05,10,0)" xlink:href="#ah"/><use transform="matrix(0.05,0,0,0.05,19,0)" xlink:href="#ah"/><use transform="matrix(0.05,0,0,0.05,28,0)" xlink:href="#aq"/><use transform="matrix(0.05,0,0,0.05,38,0)" xlink:href="#Q"/><use transform="matrix(0.05,0,0,0.05,48,0)" xlink:href="#ab"/><use transform="matrix(0.05,0,0,0.05,58,0)" xlink:href="#ac"/><use transform="matrix(0.05,0,0,0.05,63,0)" xlink:href="#W"/><use transform="matrix(0.05,0,0,0.05,73,0)" xlink:href="#ac"/><use transform="matrix(0.05,0,0,0.05,78,0)" xlink:href="#ar"/><use transform="matrix(0.05,0,0,0.05,87,0)" xlink:href="#ao"/><use transform="matrix(0.05,0,0,0.05,97,0)" xlink:href="#S"/></g><path d="M101-251c68 0 85 55 85 127S166 4 100 4C33 4 14-52 14-124c0-73 17-127 87-127zm-1 229c47 0 54-49 54-102s-4-102-53-102c-51 0-55 48-55 102 0 53 5 102 54 102" id="as"/><g id="q"><use transform="matrix(0.05,0,0,0.05,0,0)" xlink:href="#ag"/><use transform="matrix(0.05,0,0,0.05,9,0)" xlink:href="#ae"/><use transform="matrix(0.05,0,0,0.05,19,0)" xlink:href="#T"/><use transform="matrix(0.05,0,0,0.05,24.95,0)" xlink:href="#ah"/><use transform="matrix(0.05,0,0,0.05,33.95,0)" xlink:href="#ai"/><use transform="matrix(0.05,0,0,0.05,43.95,0)" xlink:href="#ae"/><use transform="matrix(0.05,0,0,0.05,53.95,0)" xlink:href="#T"/><use transform="matrix(0.05,0,0,0.05,59.900000000000006,0)" xlink:href="#aj"/><use transform="matrix(0.05,0,0,0.05,65.85000000000001,0)" xlink:href="#al"/><use transform="matrix(0.05,0,0,0.05,75.85000000000001,0)" xlink:href="#as"/><use transform="matrix(0.05,0,0,0.05,85.85000000000001,0)" xlink:href="#am"/></g><g id="r"><use transform="matrix(0.05,0,0,0.05,0,0)" xlink:href="#Z"/><use transform="matrix(0.05,0,0,0.05,10,0)" xlink:href="#ae"/><use transform="matrix(0.05,0,0,0.05,20,0)" xlink:href="#an"/><use transform="matrix(0.05,0,0,0.05,23.95,0)" xlink:href="#ae"/><use transform="matrix(0.05,0,0,0.05,33.95,0)" xlink:href="#ab"/><use transform="matrix(0.05,0,0,0.05,43.95,0)" xlink:href="#ah"/><use transform="matrix(0.05,0,0,0.05,52.95,0)" xlink:href="#S"/></g><path d="M101-234c-31-9-42 10-38 44h38v23H63V0H32v-167H5v-23h27c-7-52 17-82 69-68v24" id="at"/><g id="s"><use transform="matrix(0.05,0,0,0.05,0,0)" xlink:href="#at"/><use transform="matrix(0.05,0,0,0.05,5,0)" xlink:href="#an"/><use transform="matrix(0.05,0,0,0.05,8.95,0)" xlink:href="#aq"/><use transform="matrix(0.05,0,0,0.05,18.95,0)" xlink:href="#ae"/><use transform="matrix(0.05,0,0,0.05,28.950000000000003,0)" xlink:href="#ac"/></g><path d="M63-220v92h138v28H63V0H30v-248h175v28H63" id="au"/><g id="t"><use transform="matrix(0.05,0,0,0.05,0,0)" xlink:href="#au"/><use transform="matrix(0.05,0,0,0.05,10.950000000000001,0)" xlink:href="#V"/></g><g id="u"><use transform="matrix(0.05,0,0,0.05,0,0)" xlink:href="#ac"/><use transform="matrix(0.05,0,0,0.05,5,0)" xlink:href="#T"/><use transform="matrix(0.05,0,0,0.05,10.95,0)" xlink:href="#ae"/><use transform="matrix(0.05,0,0,0.05,20.95,0)" xlink:href="#ab"/><use transform="matrix(0.05,0,0,0.05,30.950000000000003,0)" xlink:href="#R"/><use transform="matrix(0.05,0,0,0.05,39.95,0)" xlink:href="#ae"/><use transform="matrix(0.05,0,0,0.05,49.95,0)" xlink:href="#ah"/><use transform="matrix(0.05,0,0,0.05,58.95,0)" xlink:href="#ac"/><use transform="matrix(0.05,0,0,0.05,63.95,0)" xlink:href="#X"/><use transform="matrix(0.05,0,0,0.05,67.9,0)" xlink:href="#aq"/><use transform="matrix(0.05,0,0,0.05,77.9,0)" xlink:href="#ab"/><use transform="matrix(0.05,0,0,0.05,87.9,0)" xlink:href="#R"/></g><g id="v"><use transform="matrix(0.05,0,0,0.05,0,0)" xlink:href="#ac"/><use transform="matrix(0.05,0,0,0.05,5,0)" xlink:href="#T"/><use transform="matrix(0.05,0,0,0.05,10.95,0)" xlink:href="#ae"/><use transform="matrix(0.05,0,0,0.05,20.95,0)" xlink:href="#ab"/><use transform="matrix(0.05,0,0,0.05,30.950000000000003,0)" xlink:href="#R"/><use transform="matrix(0.05,0,0,0.05,39.95,0)" xlink:href="#ae"/><use transform="matrix(0.05,0,0,0.05,49.95,0)" xlink:href="#ah"/><use transform="matrix(0.05,0,0,0.05,58.95,0)" xlink:href="#ac"/><use transform="matrix(0.05,0,0,0.05,63.95,0)" xlink:href="#X"/><use transform="matrix(0.05,0,0,0.05,67.9,0)" xlink:href="#aq"/><use transform="matrix(0.05,0,0,0.05,77.9,0)" xlink:href="#ab"/><use transform="matrix(0.05,0,0,0.05,87.9,0)" xlink:href="#W"/><use transform="matrix(0.05,0,0,0.05,97.9,0)" xlink:href="#X"/><use transform="matrix(0.05,0,0,0.05,101.85000000000001,0)" xlink:href="#Y"/></g><g id="w"><use transform="matrix(0.05,0,0,0.05,0,0)" xlink:href="#ae"/><use transform="matrix(0.05,0,0,0.05,10,0)" xlink:href="#af"/><use transform="matrix(0.05,0,0,0.05,24.950000000000003,0)" xlink:href="#aq"/><use transform="matrix(0.05,0,0,0.05,34.95,0)" xlink:href="#Q"/><use transform="matrix(0.05,0,0,0.05,44.95,0)" xlink:href="#ab"/><use transform="matrix(0.05,0,0,0.05,54.95,0)" xlink:href="#ac"/></g><g id="x"><use transform="matrix(0.05,0,0,0.05,0,0)" xlink:href="#X"/><use transform="matrix(0.05,0,0,0.05,3.95,0)" xlink:href="#ab"/><use transform="matrix(0.05,0,0,0.05,13.949999999999998,0)" xlink:href="#ac"/></g><g id="y"><use transform="matrix(0.05,0,0,0.05,0,0)" xlink:href="#ac"/><use transform="matrix(0.05,0,0,0.05,5,0)" xlink:href="#T"/><use transform="matrix(0.05,0,0,0.05,10.95,0)" xlink:href="#ae"/><use transform="matrix(0.05,0,0,0.05,20.95,0)" xlink:href="#ab"/><use transform="matrix(0.05,0,0,0.05,30.950000000000003,0)" xlink:href="#R"/><use transform="matrix(0.05,0,0,0.05,39.95,0)" xlink:href="#ae"/><use transform="matrix(0.05,0,0,0.05,49.95,0)" xlink:href="#ah"/><use transform="matrix(0.05,0,0,0.05,58.95,0)" xlink:href="#ac"/><use transform="matrix(0.05,0,0,0.05,63.95,0)" xlink:href="#X"/><use transform="matrix(0.05,0,0,0.05,67.9,0)" xlink:href="#aq"/><use transform="matrix(0.05,0,0,0.05,77.9,0)" xlink:href="#ab"/><use transform="matrix(0.05,0,0,0.05,87.9,0)" xlink:href="#W"/><use transform="matrix(0.05,0,0,0.05,97.9,0)" xlink:href="#Y"/><use transform="matrix(0.05,0,0,0.05,107.9,0)" xlink:href="#ae"/><use transform="matrix(0.05,0,0,0.05,117.9,0)" xlink:href="#ac"/><use transform="matrix(0.05,0,0,0.05,122.9,0)" xlink:href="#S"/></g><g id="z"><use transform="matrix(0.05,0,0,0.05,0,0)" xlink:href="#Y"/><use transform="matrix(0.05,0,0,0.05,10,0)" xlink:href="#ae"/><use transform="matrix(0.05,0,0,0.05,20,0)" xlink:href="#ac"/><use transform="matrix(0.05,0,0,0.05,25,0)" xlink:href="#S"/><use transform="matrix(0.05,0,0,0.05,35,0)" xlink:href="#ac"/><use transform="matrix(0.05,0,0,0.05,40,0)" xlink:href="#X"/><use transform="matrix(0.05,0,0,0.05,43.95,0)" xlink:href="#af"/><use transform="matrix(0.05,0,0,0.05,58.900000000000006,0)" xlink:href="#S"/></g><g id="A"><use transform="matrix(0.05,0,0,0.05,0,0)" xlink:href="#ah"/><use transform="matrix(0.05,0,0,0.05,9,0)" xlink:href="#ae"/><use transform="matrix(0.05,0,0,0.05,19,0)" xlink:href="#ac"/><use transform="matrix(0.05,0,0,0.05,24,0)" xlink:href="#S"/><use transform="matrix(0.05,0,0,0.05,34,0)" xlink:href="#aa"/><use transform="matrix(0.05,0,0,0.05,44,0)" xlink:href="#aq"/><use transform="matrix(0.05,0,0,0.05,54,0)" xlink:href="#T"/><use transform="matrix(0.05,0,0,0.05,59.95,0)" xlink:href="#ar"/><use transform="matrix(0.05,0,0,0.05,68.95,0)" xlink:href="#W"/><use transform="matrix(0.05,0,0,0.05,78.95,0)" xlink:href="#X"/><use transform="matrix(0.05,0,0,0.05,82.9,0)" xlink:href="#Y"/></g><g id="B"><use transform="matrix(0.05,0,0,0.05,0,0)" xlink:href="#Y"/><use transform="matrix(0.05,0,0,0.05,10,0)" xlink:href="#S"/><use transform="matrix(0.05,0,0,0.05,20,0)" xlink:href="#R"/><use transform="matrix(0.05,0,0,0.05,29,0)" xlink:href="#ah"/><use transform="matrix(0.05,0,0,0.05,38,0)" xlink:href="#T"/><use transform="matrix(0.05,0,0,0.05,43.95,0)" xlink:href="#X"/><use transform="matrix(0.05,0,0,0.05,47.900000000000006,0)" xlink:href="#ao"/><use transform="matrix(0.05,0,0,0.05,57.900000000000006,0)" xlink:href="#ac"/><use transform="matrix(0.05,0,0,0.05,62.900000000000006,0)" xlink:href="#X"/><use transform="matrix(0.05,0,0,0.05,66.85000000000001,0)" xlink:href="#aq"/><use transform="matrix(0.05,0,0,0.05,76.85000000000001,0)" xlink:href="#ab"/></g><path d="M141 0L90-78 38 0H4l68-98-65-92h35l48 74 47-74h35l-64 92 68 98h-35" id="av"/><path d="M110-160c48 1 74 30 74 79 0 53-28 85-80 85-65 0-83-55-86-122-5-90 50-162 133-122 14 7 22 21 27 39l-31 6c-5-40-67-38-82-6-9 19-15 44-15 74 11-20 30-34 60-33zm-7 138c34 0 49-23 49-58s-16-56-50-56c-29 0-50 16-49 49 1 36 15 65 50 65" id="aw"/><path d="M126-127c33 6 58 20 58 59 0 88-139 92-164 29-3-8-5-16-6-25l32-3c6 27 21 44 54 44 32 0 52-15 52-46 0-38-36-46-79-43v-28c39 1 72-4 72-42 0-27-17-43-46-43-28 0-47 15-49 41l-32-3c6-42 35-63 81-64 48-1 79 21 79 65 0 36-21 52-52 59" id="ax"/><g id="C"><use transform="matrix(0.05,0,0,0.05,0,0)" xlink:href="#ac"/><use transform="matrix(0.05,0,0,0.05,5,0)" xlink:href="#S"/><use transform="matrix(0.05,0,0,0.05,15,0)" xlink:href="#av"/><use transform="matrix(0.05,0,0,0.05,24,0)" xlink:href="#ac"/><use transform="matrix(0.05,0,0,0.05,29,0)" xlink:href="#aj"/><use transform="matrix(0.05,0,0,0.05,34.95,0)" xlink:href="#aw"/><use transform="matrix(0.05,0,0,0.05,44.95,0)" xlink:href="#al"/><use transform="matrix(0.05,0,0,0.05,54.95,0)" xlink:href="#al"/><use transform="matrix(0.05,0,0,0.05,64.95,0)" xlink:href="#ax"/><use transform="matrix(0.05,0,0,0.05,74.95,0)" xlink:href="#al"/><use transform="matrix(0.05,0,0,0.05,84.95,0)" xlink:href="#am"/></g><g id="D"><use transform="matrix(0.05,0,0,0.05,0,0)" xlink:href="#ac"/><use transform="matrix(0.05,0,0,0.05,5,0)" xlink:href="#T"/><use transform="matrix(0.05,0,0,0.05,10.95,0)" xlink:href="#ae"/><use transform="matrix(0.05,0,0,0.05,20.95,0)" xlink:href="#ab"/><use transform="matrix(0.05,0,0,0.05,30.950000000000003,0)" xlink:href="#R"/><use transform="matrix(0.05,0,0,0.05,39.95,0)" xlink:href="#ae"/><use transform="matrix(0.05,0,0,0.05,49.95,0)" xlink:href="#ah"/><use transform="matrix(0.05,0,0,0.05,58.95,0)" xlink:href="#ac"/><use transform="matrix(0.05,0,0,0.05,63.95,0)" xlink:href="#X"/><use transform="matrix(0.05,0,0,0.05,67.9,0)" xlink:href="#aq"/><use transform="matrix(0.05,0,0,0.05,77.9,0)" xlink:href="#ab"/><use transform="matrix(0.05,0,0,0.05,87.9,0)" xlink:href="#W"/><use transform="matrix(0.05,0,0,0.05,97.9,0)" xlink:href="#ac"/><use transform="matrix(0.05,0,0,0.05,102.9,0)" xlink:href="#ar"/><use transform="matrix(0.05,0,0,0.05,111.9,0)" xlink:href="#ao"/><use transform="matrix(0.05,0,0,0.05,121.9,0)" xlink:href="#S"/></g><path d="M64 0c3-98 48-159 88-221H18v-27h164v26C143-157 98-101 97 0H64" id="ay"/><g id="E"><use transform="matrix(0.05,0,0,0.05,0,0)" xlink:href="#S"/><use transform="matrix(0.05,0,0,0.05,10,0)" xlink:href="#ab"/><use transform="matrix(0.05,0,0,0.05,20,0)" xlink:href="#Q"/><use transform="matrix(0.05,0,0,0.05,30,0)" xlink:href="#af"/><use transform="matrix(0.05,0,0,0.05,44.95,0)" xlink:href="#aj"/><use transform="matrix(0.05,0,0,0.05,50.900000000000006,0)" xlink:href="#ay"/><use transform="matrix(0.05,0,0,0.05,60.900000000000006,0)" xlink:href="#am"/></g><g id="F"><use transform="matrix(0.05,0,0,0.05,0,0)" xlink:href="#ah"/><use transform="matrix(0.05,0,0,0.05,9,0)" xlink:href="#ae"/><use transform="matrix(0.05,0,0,0.05,19,0)" xlink:href="#ac"/><use transform="matrix(0.05,0,0,0.05,24,0)" xlink:href="#S"/><use transform="matrix(0.05,0,0,0.05,34,0)" xlink:href="#aa"/><use transform="matrix(0.05,0,0,0.05,44,0)" xlink:href="#aq"/><use transform="matrix(0.05,0,0,0.05,54,0)" xlink:href="#T"/><use transform="matrix(0.05,0,0,0.05,59.95,0)" xlink:href="#X"/><use transform="matrix(0.05,0,0,0.05,63.900000000000006,0)" xlink:href="#S"/><use transform="matrix(0.05,0,0,0.05,73.9,0)" xlink:href="#R"/></g><g id="G"><use transform="matrix(0.05,0,0,0.05,0,0)" xlink:href="#ah"/><use transform="matrix(0.05,0,0,0.05,9,0)" xlink:href="#ae"/><use transform="matrix(0.05,0,0,0.05,19,0)" xlink:href="#ac"/><use transform="matrix(0.05,0,0,0.05,24,0)" xlink:href="#S"/><use transform="matrix(0.05,0,0,0.05,34,0)" xlink:href="#aa"/><use transform="matrix(0.05,0,0,0.05,44,0)" xlink:href="#aq"/><use transform="matrix(0.05,0,0,0.05,54,0)" xlink:href="#T"/><use transform="matrix(0.05,0,0,0.05,59.95,0)" xlink:href="#ar"/><use transform="matrix(0.05,0,0,0.05,68.95,0)" xlink:href="#W"/><use transform="matrix(0.05,0,0,0.05,78.95,0)" xlink:href="#ab"/><use transform="matrix(0.05,0,0,0.05,88.95,0)" xlink:href="#ae"/><use transform="matrix(0.05,0,0,0.05,98.95,0)" xlink:href="#af"/><use transform="matrix(0.05,0,0,0.05,113.9,0)" xlink:href="#S"/></g><g id="H"><use transform="matrix(0.05,0,0,0.05,0,0)" xlink:href="#ah"/><use transform="matrix(0.05,0,0,0.05,9,0)" xlink:href="#ae"/><use transform="matrix(0.05,0,0,0.05,19,0)" xlink:href="#ac"/><use transform="matrix(0.05,0,0,0.05,24,0)" xlink:href="#S"/><use transform="matrix(0.05,0,0,0.05,34,0)" xlink:href="#aa"/><use transform="matrix(0.05,0,0,0.05,44,0)" xlink:href="#aq"/><use transform="matrix(0.05,0,0,0.05,54,0)" xlink:href="#T"/><use transform="matrix(0.05,0,0,0.05,59.95,0)" xlink:href="#ar"/><use transform="matrix(0.05,0,0,0.05,68.95,0)" xlink:href="#W"/><use transform="matrix(0.05,0,0,0.05,78.95,0)" xlink:href="#ac"/><use transform="matrix(0.05,0,0,0.05,83.95,0)" xlink:href="#ar"/><use transform="matrix(0.05,0,0,0.05,92.95,0)" xlink:href="#ao"/><use transform="matrix(0.05,0,0,0.05,102.95,0)" xlink:href="#S"/></g><g id="I"><use transform="matrix(0.05,0,0,0.05,0,0)" xlink:href="#Z"/><use transform="matrix(0.05,0,0,0.05,10,0)" xlink:href="#Q"/><use transform="matrix(0.05,0,0,0.05,20,0)" xlink:href="#Y"/><use transform="matrix(0.05,0,0,0.05,30,0)" xlink:href="#aa"/><use transform="matrix(0.05,0,0,0.05,40,0)" xlink:href="#S"/><use transform="matrix(0.05,0,0,0.05,50,0)" xlink:href="#ac"/></g><g id="J"><use transform="matrix(0.05,0,0,0.05,0,0)" xlink:href="#Z"/><use transform="matrix(0.05,0,0,0.05,10,0)" xlink:href="#Q"/><use transform="matrix(0.05,0,0,0.05,20,0)" xlink:href="#Y"/><use transform="matrix(0.05,0,0,0.05,30,0)" xlink:href="#aa"/><use transform="matrix(0.05,0,0,0.05,40,0)" xlink:href="#S"/><use transform="matrix(0.05,0,0,0.05,50,0)" xlink:href="#ac"/><use transform="matrix(0.05,0,0,0.05,55,0)" xlink:href="#W"/><use transform="matrix(0.05,0,0,0.05,65,0)" xlink:href="#X"/><use transform="matrix(0.05,0,0,0.05,68.95,0)" xlink:href="#Y"/></g><g id="K"><use transform="matrix(0.05,0,0,0.05,0,0)" xlink:href="#aa"/><use transform="matrix(0.05,0,0,0.05,10,0)" xlink:href="#aq"/><use transform="matrix(0.05,0,0,0.05,20,0)" xlink:href="#ae"/><use transform="matrix(0.05,0,0,0.05,30,0)" xlink:href="#an"/><use transform="matrix(0.05,0,0,0.05,33.95,0)" xlink:href="#W"/><use transform="matrix(0.05,0,0,0.05,43.95,0)" xlink:href="#ab"/><use transform="matrix(0.05,0,0,0.05,53.95,0)" xlink:href="#ae"/><use transform="matrix(0.05,0,0,0.05,63.95,0)" xlink:href="#af"/><use transform="matrix(0.05,0,0,0.05,78.9,0)" xlink:href="#S"/></g><g id="L"><use transform="matrix(0.05,0,0,0.05,0,0)" xlink:href="#Z"/><use transform="matrix(0.05,0,0,0.05,10,0)" xlink:href="#Q"/><use transform="matrix(0.05,0,0,0.05,20,0)" xlink:href="#Y"/><use transform="matrix(0.05,0,0,0.05,30,0)" xlink:href="#aa"/><use transform="matrix(0.05,0,0,0.05,40,0)" xlink:href="#S"/><use transform="matrix(0.05,0,0,0.05,50,0)" xlink:href="#ac"/><use transform="matrix(0.05,0,0,0.05,55,0)" xlink:href="#W"/><use transform="matrix(0.05,0,0,0.05,65,0)" xlink:href="#ae"/><use transform="matrix(0.05,0,0,0.05,75,0)" xlink:href="#af"/><use transform="matrix(0.05,0,0,0.05,89.95,0)" xlink:href="#aq"/><use transform="matrix(0.05,0,0,0.05,99.95,0)" xlink:href="#Q"/><use transform="matrix(0.05,0,0,0.05,109.95,0)" xlink:href="#ab"/><use transform="matrix(0.05,0,0,0.05,119.95,0)" xlink:href="#ac"/></g><g id="M"><use transform="matrix(0.05,0,0,0.05,0,0)" xlink:href="#ah"/><use transform="matrix(0.05,0,0,0.05,9,0)" xlink:href="#Q"/><use transform="matrix(0.05,0,0,0.05,19,0)" xlink:href="#T"/><use transform="matrix(0.05,0,0,0.05,24.95,0)" xlink:href="#T"/><use transform="matrix(0.05,0,0,0.05,30.899999999999995,0)" xlink:href="#S"/><use transform="matrix(0.05,0,0,0.05,40.9,0)" xlink:href="#ab"/><use transform="matrix(0.05,0,0,0.05,50.9,0)" xlink:href="#ac"/><use transform="matrix(0.05,0,0,0.05,55.900000000000006,0)" xlink:href="#W"/><use transform="matrix(0.05,0,0,0.05,65.9,0)" xlink:href="#ae"/><use transform="matrix(0.05,0,0,0.05,75.9,0)" xlink:href="#af"/><use transform="matrix(0.05,0,0,0.05,90.85000000000001,0)" xlink:href="#aq"/><use transform="matrix(0.05,0,0,0.05,100.85000000000001,0)" xlink:href="#Q"/><use transform="matrix(0.05,0,0,0.05,110.85000000000001,0)" xlink:href="#ab"/><use transform="matrix(0.05,0,0,0.05,120.85000000000001,0)" xlink:href="#ac"/></g><g id="N"><use transform="matrix(0.05,0,0,0.05,0,0)" xlink:href="#R"/><use transform="matrix(0.05,0,0,0.05,9,0)" xlink:href="#ac"/><use transform="matrix(0.05,0,0,0.05,14,0)" xlink:href="#ae"/><use transform="matrix(0.05,0,0,0.05,24,0)" xlink:href="#T"/><use transform="matrix(0.05,0,0,0.05,29.950000000000003,0)" xlink:href="#ac"/><use transform="matrix(0.05,0,0,0.05,34.95,0)" xlink:href="#W"/><use transform="matrix(0.05,0,0,0.05,44.95,0)" xlink:href="#Y"/><use transform="matrix(0.05,0,0,0.05,54.95,0)" xlink:href="#ae"/><use transform="matrix(0.05,0,0,0.05,64.95,0)" xlink:href="#ac"/><use transform="matrix(0.05,0,0,0.05,69.95,0)" xlink:href="#S"/></g><g id="O"><use transform="matrix(0.05,0,0,0.05,0,0)" xlink:href="#Y"/><use transform="matrix(0.05,0,0,0.05,10,0)" xlink:href="#ae"/><use transform="matrix(0.05,0,0,0.05,20,0)" xlink:href="#ac"/><use transform="matrix(0.05,0,0,0.05,25,0)" xlink:href="#S"/></g><g id="P"><use transform="matrix(0.05,0,0,0.05,0,0)" xlink:href="#S"/><use transform="matrix(0.05,0,0,0.05,10,0)" xlink:href="#ab"/><use transform="matrix(0.05,0,0,0.05,20,0)" xlink:href="#Y"/><use transform="matrix(0.05,0,0,0.05,30,0)" xlink:href="#W"/><use transform="matrix(0.05,0,0,0.05,40,0)" xlink:href="#Y"/><use transform="matrix(0.05,0,0,0.05,50,0)" xlink:href="#ae"/><use transform="matrix(0.05,0,0,0.05,60,0)" xlink:href="#ac"/><use transform="matrix(0.05,0,0,0.05,65,0)" xlink:href="#S"/></g></defs></g></svg>